<?xml version="1.0" standalone="no"?>
<!DOCTYPE svg PUBLIC "-//W3C//DTD SVG 20010904//EN"
 "http://www.w3.org/TR/2001/REC-SVG-20010904/DTD/svg10.dtd">
<svg version="1.0" xmlns="http://www.w3.org/2000/svg"
 width="500.000000pt" height="500.000000pt" viewBox="0 0 500.000000 500.000000"
 preserveAspectRatio="xMidYMid meet">
<metadata>
Created by potrace 1.14, written by Peter Selinger 2001-2017
</metadata>
<g transform="translate(0.000000,500.000000) scale(0.100000,-0.100000)"
fill="#000000" stroke="none">
<path d="M2190 4979 c-184 -28 -199 -31 -330 -65 -677 -174 -1269 -654 -1585
-1284 -185 -369 -265 -702 -265 -1107 0 -215 15 -371 51 -542 104 -492 338
-914 705 -1271 364 -354 796 -575 1299 -665 183 -33 668 -37 835 -6 166 30
256 53 399 100 280 93 562 252 801 452 416 348 708 827 825 1354 49 218 57
302 56 570 -1 261 -8 330 -56 549 -182 843 -853 1568 -1685 1820 -177 53 -236
66 -420 91 -115 16 -534 19 -630 4z m1322 -1483 c17 -19 50 -78 74 -131 43
-95 115 -226 139 -255 14 -16 73 -126 135 -250 21 -41 49 -84 61 -95 37 -32
83 -62 120 -80 50 -23 70 -37 104 -69 17 -16 68 -61 115 -100 80 -67 98 -78
160 -104 38 -15 116 -88 130 -122 7 -16 16 -30 20 -30 5 0 11 -18 15 -40 9
-52 -10 -77 -78 -106 -58 -25 -132 -40 -267 -55 -47 -5 -93 -12 -102 -15 -10
-3 -84 -10 -166 -15 -81 -5 -172 -13 -202 -18 -63 -9 -175 -59 -240 -106 -25
-18 -83 -56 -130 -84 -47 -29 -107 -68 -135 -88 -119 -87 -260 -147 -465 -198
-124 -30 -159 -35 -166 -24 -3 5 5 9 18 9 13 0 28 4 33 9 6 5 66 39 135 74
184 95 235 122 282 155 37 25 172 100 313 174 22 12 72 45 110 73 108 80 235
125 420 148 109 14 148 13 307 -12 56 -9 76 -8 115 5 52 17 82 47 83 79 0 19
-5 21 -57 18 -32 -1 -129 -5 -215 -7 -115 -4 -163 -9 -180 -20 -13 -8 -71 -19
-137 -26 -156 -15 -330 -80 -420 -156 -45 -39 -262 -154 -289 -154 -11 0 -22
6 -25 13 -4 12 -13 6 -148 -89 -44 -30 -277 -154 -292 -154 -3 0 -30 -11 -59
-24 -66 -30 -101 -38 -133 -30 -21 5 -25 12 -25 42 0 41 39 113 85 159 39 36
131 97 166 108 38 12 95 53 108 78 7 13 10 36 8 52 -6 47 -47 42 -97 -11 -22
-23 -40 -47 -40 -52 0 -5 -11 -13 -25 -16 -14 -4 -25 -11 -25 -17 0 -6 -4 -8
-10 -4 -5 3 -7 11 -4 19 5 13 -35 36 -63 36 -8 0 -13 6 -10 13 3 8 -5 12 -24
12 -16 0 -29 -5 -29 -11 0 -7 -8 -11 -17 -10 -10 0 -17 -5 -15 -11 1 -8 -10
-13 -30 -13 -21 0 -28 -3 -20 -8 7 -5 10 -16 6 -25 -4 -12 -11 -14 -24 -7 -21
11 -34 2 -20 -15 8 -9 6 -14 -5 -19 -9 -3 -13 -11 -10 -17 5 -7 -1 -9 -16 -7
-18 2 -24 9 -24 28 0 18 -5 24 -17 22 -10 -2 -18 1 -18 5 0 16 -97 7 -125 -11
-15 -10 -36 -16 -46 -13 -11 3 -16 1 -13 -5 4 -6 -2 -8 -16 -3 -17 5 -21 4
-15 -5 6 -9 4 -11 -4 -5 -16 9 26 56 49 54 8 -1 26 3 40 9 14 6 19 11 12 11
-10 1 -10 6 -1 24 7 12 18 25 25 30 7 4 11 15 9 25 -2 9 -4 24 -4 32 -2 30
-111 75 -111 46 0 -15 -51 -13 -145 5 -27 6 -58 11 -67 12 -19 1 -24 13 -8 19
5 2 11 17 12 33 1 17 10 39 20 49 10 11 18 28 18 38 0 10 6 18 13 18 6 0 4 5
-5 11 -22 12 -24 49 -3 49 8 0 15 4 15 10 0 5 11 12 25 16 14 3 25 9 25 13 0
9 55 12 88 5 12 -2 22 -11 22 -20 0 -9 8 -14 18 -13 30 3 42 -1 42 -13 0 -13
73 -83 89 -84 46 -4 54 -6 43 -11 -8 -3 -5 -11 10 -24 14 -10 18 -18 10 -19
-18 0 -4 -20 14 -20 8 0 13 4 10 9 -4 5 -1 11 5 13 14 5 78 -24 79 -35 0 -4
-9 -3 -19 3 -23 12 -31 13 -31 2 0 -4 21 -14 46 -21 30 -9 41 -16 33 -22 -7
-4 -17 -5 -21 -3 -4 3 -8 0 -8 -5 0 -6 13 -11 29 -11 21 0 28 -5 27 -17 0 -10
6 -18 14 -18 8 0 22 -7 31 -16 11 -11 26 -15 45 -11 16 3 24 7 18 9 -14 5 -6
43 9 43 19 0 121 113 145 160 50 99 58 107 104 104 21 -2 40 1 43 7 4 5 15 9
27 9 15 0 19 -5 15 -20 -3 -12 0 -20 7 -20 8 0 12 12 11 30 -1 17 2 33 7 36 4
3 8 16 8 28 0 22 -4 23 -45 21 -34 -3 -45 0 -45 11 0 8 -6 14 -13 14 -7 0 -22
8 -33 18 -10 10 -28 24 -39 30 -11 6 -14 12 -7 12 18 0 15 27 -4 34 -9 4 -32
4 -50 0 -21 -4 -40 -2 -49 6 -8 7 -52 14 -101 15 -50 2 -90 8 -94 14 -11 19
-41 1 -34 -21 8 -27 -13 -48 -51 -48 -21 0 -35 -6 -39 -17 -6 -14 -9 -13 -28
6 -16 18 -29 22 -64 19 -36 -3 -44 0 -44 14 0 10 -5 15 -13 13 -16 -7 -50 39
-52 70 0 17 6 25 22 28 13 2 23 0 23 -4 0 -5 5 -9 11 -9 5 0 7 5 3 11 -3 6 0
15 7 20 11 7 10 9 -3 9 -40 0 -8 66 48 99 61 36 133 52 202 45 34 -3 62 -3 62
1 0 14 -48 47 -124 86 -67 33 -90 39 -142 39 -76 0 -94 6 -94 32 0 12 11 23
31 30 26 9 29 13 17 24 -8 8 -45 23 -83 34 -65 19 -70 19 -88 2 -24 -21 -47
-73 -98 -219 -21 -61 -51 -133 -66 -160 -14 -26 -32 -57 -38 -68 -6 -11 -25
-43 -43 -71 -48 -77 -87 -149 -141 -259 -26 -55 -64 -125 -84 -155 -20 -30
-44 -79 -53 -110 -8 -30 -28 -95 -43 -145 -47 -149 -47 -151 -12 -169 16 -9
32 -25 36 -36 4 -11 15 -20 26 -20 12 0 17 -4 13 -11 -3 -6 -15 -9 -25 -6 -10
3 -23 -1 -29 -8 -6 -7 -24 -15 -41 -17 -25 -4 -35 1 -52 24 l-21 28 -25 -24
c-25 -23 -105 -56 -136 -56 -27 0 -110 32 -155 60 -25 15 -56 30 -70 33 -14 4
-61 38 -104 76 -44 39 -82 68 -85 66 -2 -3 5 -15 17 -28 12 -13 22 -29 22 -37
0 -8 10 -24 22 -37 12 -13 17 -23 11 -23 -31 0 -181 188 -190 237 -2 10 -1 41
2 68 5 45 11 53 48 80 23 16 76 42 117 56 41 14 106 40 143 57 38 18 72 32 76
32 4 0 18 11 31 25 25 27 67 33 101 14 11 -5 28 -7 38 -4 29 9 73 72 66 94
-10 33 -53 41 -210 38 -120 -2 -164 2 -220 17 -38 10 -74 22 -79 27 -6 5 -17
9 -25 9 -8 0 -29 11 -47 25 -47 36 -56 31 -34 -17 33 -73 23 -93 -34 -67 -39
18 -58 70 -53 142 9 114 64 397 86 437 4 8 14 40 21 70 25 103 74 182 158 254
103 90 147 113 231 127 75 11 282 5 322 -9 13 -5 58 -12 99 -16 41 -4 127 -19
190 -33 63 -14 126 -27 140 -30 50 -9 257 -77 340 -111 168 -69 293 -168 599
-473 42 -42 110 -98 151 -125 69 -45 81 -49 148 -52 65 -4 77 -2 112 22 22 14
57 48 79 76 53 67 58 114 36 312 -27 237 -32 307 -20 312 7 2 7 9 -1 21 -8 14
-5 24 13 43 13 14 23 33 23 42 0 9 14 36 30 58 27 37 35 42 71 42 34 0 46 -6
71 -34z m-1191 -963 c13 -15 12 -15 -8 -4 -24 12 -29 21 -14 21 5 0 15 -7 22
-17z m99 -17 c0 -2 -7 -6 -15 -10 -8 -3 -15 -1 -15 4 0 6 7 10 15 10 8 0 15
-2 15 -4z m-365 -96 c-3 -5 -11 -10 -16 -10 -6 0 -7 5 -4 10 3 6 11 10 16 10
6 0 7 -4 4 -10z m-165 -80 c0 -5 -4 -10 -10 -10 -5 0 -10 5 -10 10 0 6 5 10
10 10 6 0 10 -4 10 -10z m-60 -176 c17 -31 19 -48 8 -59 -9 -9 19 -65 32 -65
6 0 10 -6 10 -14 0 -8 9 -18 20 -21 11 -4 18 -11 14 -16 -3 -6 3 -13 14 -16
18 -4 28 -21 37 -58 7 -26 7 -31 6 -37 -2 -14 43 -60 68 -69 13 -5 21 -12 17
-16 -3 -3 -1 -12 5 -20 9 -10 8 -13 -4 -13 -9 0 -18 4 -22 9 -8 14 -48 9 -63
-9 -10 -11 -15 -12 -18 -2 -3 6 -12 12 -19 12 -24 0 -75 51 -75 75 0 12 -7 26
-16 29 -8 3 -12 10 -9 16 3 5 2 10 -4 10 -17 0 -64 102 -51 110 7 4 -3 10 -21
14 -18 3 -29 9 -26 13 4 3 -1 12 -11 19 -16 13 -16 13 1 14 9 0 17 6 17 14 0
7 8 24 19 37 10 13 16 30 14 37 -3 6 0 12 6 12 6 0 11 7 11 16 0 23 22 12 40
-22z m-292 -531 c-4 -23 -48 -31 -48 -10 0 9 6 18 13 20 25 11 38 7 35 -10z
m782 -23 c0 -5 -2 -10 -4 -10 -3 0 -8 5 -11 10 -3 6 -1 10 4 10 6 0 11 -4 11
-10z m-955 -65 c17 -1 44 -7 60 -14 20 -8 61 -11 120 -9 85 4 295 -18 405 -43
71 -16 263 -10 538 18 67 6 92 -11 36 -25 -22 -6 -59 -15 -84 -22 -99 -25
-175 -32 -400 -33 -196 -2 -246 1 -300 15 -36 10 -119 25 -185 33 -116 14
-305 62 -305 76 0 10 41 17 65 11 11 -3 34 -6 50 -7z"/>
<path d="M3417 3323 c-32 -22 -40 -24 -68 -14 l-31 11 5 -53 c2 -28 12 -92 20
-142 9 -49 21 -142 28 -205 12 -104 14 -111 22 -75 9 42 5 108 -10 185 -5 25
-6 57 -2 71 3 14 3 46 -1 71 -3 25 -3 53 1 64 4 10 8 15 8 10 1 -5 8 -3 16 4
13 10 15 9 15 -9 0 -12 6 -21 15 -21 23 0 50 -52 64 -126 9 -42 25 -83 43
-108 16 -23 30 -55 31 -71 1 -17 5 -32 8 -35 4 -3 3 -15 -2 -28 -7 -18 -14
-22 -29 -17 -14 4 -20 2 -20 -8 0 -8 -7 -18 -15 -21 -14 -5 -13 -10 6 -35 18
-25 20 -33 9 -46 -11 -14 -7 -19 13 -16 4 1 23 -5 41 -13 19 -8 37 -12 39 -9
8 7 67 -26 67 -38 0 -16 55 -6 57 11 2 8 -12 39 -29 69 -18 30 -43 72 -56 93
-12 21 -25 62 -28 90 -3 29 -9 57 -13 63 -5 5 -14 28 -21 50 -13 42 -40 83
-84 126 -22 22 -24 28 -12 38 8 7 13 20 11 29 -2 9 -4 24 -4 33 -1 9 -18 23
-38 32 -30 12 -33 15 -15 16 24 1 29 22 9 39 -10 9 -22 5 -50 -15z"/>
<path d="M1094 3158 c11 -100 19 -120 56 -140 19 -10 34 -23 33 -28 -4 -13 3
-13 30 3 45 25 66 50 72 88 8 43 -9 69 -44 69 -11 0 -45 11 -75 25 -74 34 -77
33 -72 -17z"/>
<path d="M1280 3161 c0 -18 18 -21 30 -6 10 13 9 15 -9 15 -11 0 -21 -4 -21
-9z"/>
<path d="M1526 2935 c-19 -8 -24 -14 -15 -18 8 -2 -6 -5 -30 -5 -24 0 -46 -4
-50 -10 -3 -6 -19 -14 -34 -17 -34 -9 -39 -17 -31 -50 5 -22 11 -25 51 -25 24
0 42 -4 39 -9 -6 -9 39 -21 76 -21 16 0 19 5 13 29 -9 40 21 46 81 14 37 -20
48 -22 55 -11 5 7 9 17 9 21 0 17 -28 73 -44 86 -25 21 -87 29 -120 16z"/>
<path d="M2348 2812 c-54 -18 -88 -41 -88 -59 0 -8 5 -11 11 -8 5 4 24 9 41
12 25 4 30 2 25 -12 -4 -10 0 -18 10 -22 9 -4 19 -1 21 5 2 7 14 12 27 12 13
0 27 5 30 10 3 6 16 10 28 10 12 1 37 9 56 19 30 16 31 19 15 25 -44 18 -134
22 -176 8z"/>
<path d="M2465 2660 c3 -5 12 -10 20 -10 8 0 17 5 20 10 4 6 -5 10 -20 10 -15
0 -24 -4 -20 -10z"/>
<path d="M2350 2570 c0 -5 5 -10 10 -10 6 0 10 5 10 10 0 6 -4 10 -10 10 -5 0
-10 -4 -10 -10z"/>
<path d="M3842 2458 c-7 -7 -35 -12 -70 -11 -46 1 -63 -4 -89 -23 -17 -13 -44
-29 -59 -34 -15 -6 -24 -13 -20 -17 3 -3 -1 -15 -11 -25 -20 -22 -26 -68 -10
-68 7 0 23 -9 37 -20 30 -23 35 -24 52 -7 42 41 157 58 241 35 34 -9 53 -8 88
2 64 19 99 17 153 -9 35 -17 50 -21 59 -12 14 14 -28 61 -54 61 -10 0 -26 14
-36 30 -10 17 -28 33 -40 36 -13 4 -23 10 -23 15 0 9 -104 43 -165 53 -27 5
-44 3 -53 -6z"/>
<path d="M2975 2360 c-3 -5 -1 -10 4 -10 6 0 11 5 11 10 0 6 -2 10 -4 10 -3 0
-8 -4 -11 -10z"/>
<path d="M1960 2350 c0 -5 4 -10 9 -10 6 0 13 5 16 10 3 6 -1 10 -9 10 -9 0
-16 -4 -16 -10z"/>
<path d="M2560 2040 c0 -5 7 -10 16 -10 8 0 12 5 9 10 -3 6 -10 10 -16 10 -5
0 -9 -4 -9 -10z"/>
<path d="M2262 2005 c-1 -14 3 -25 11 -25 25 0 57 13 57 22 0 6 -7 7 -16 4
-12 -4 -15 -2 -10 9 4 11 -1 15 -17 15 -17 0 -23 -6 -25 -25z"/>
</g>
</svg>
